<?xml version="1.0" encoding="UTF-8"?>
<svg width="196px" height="42px" viewBox="0 0 196 42" version="1.1" xmlns="http://www.w3.org/2000/svg" xmlns:xlink="http://www.w3.org/1999/xlink">
    <!-- Generator: Sketch 55.2 (78181) - https://sketchapp.com -->
    <title>goX_logo</title>
    <desc>Created with Sketch.</desc>
    <defs>
        <polygon id="path-1" points="0 0.0643014085 27.5746958 0.0643014085 27.5746958 27.7156817 0 27.7156817"></polygon>
        <path d="M8.8771831,0.161295775 L12.7620845,8.2704507 L0.0581690141,8.2704507 L3.50571831,13.820169 L28.137345,13.820169 C28.1664225,13.5723099 22.1371549,1.03974648 22.1371549,1.03974648 L22.1371549,1.03974648 C21.8735211,0.491183099 21.2748732,0.161295775 20.538,0.161295775 L20.538,0.161295775 L8.8771831,0.161295775 Z" id="path-3"></path>
        <linearGradient x1="-7.62632226e-05%" y1="50.0001805%" x2="100.000181%" y2="50.0001805%" id="linearGradient-5">
            <stop stop-color="#F9CA24" offset="0%"></stop>
            <stop stop-color="#EF5431" offset="100%"></stop>
        </linearGradient>
    </defs>
    <g id="Page-1" stroke="none" stroke-width="1" fill="none" fill-rule="evenodd">
        <g id="Homepage" transform="translate(-147.000000, -30.000000)">
            <g id="Hero">
                <g id="Text" transform="translate(147.000000, 30.000000)">
                    <g id="goX_logo">
                        <g id="Group-18" transform="translate(0.000000, 0.452732)">
                            <g id="Group-3" transform="translate(0.000000, 0.197183)">
                                <mask id="mask-2" fill="white">
                                    <use xlink:href="#path-1"></use>
                                </mask>
                                <g id="Clip-2"></g>
                                <path d="M0.335822535,13.965907 L0.351794366,13.8899915 C1.99847042,6.14168169 9.36799155,0.0643014085 17.6102451,0.0643014085 C22.2830901,0.0643014085 25.2806676,1.50748451 27.5746958,3.93875211 L22.1389493,9.14201972 C20.5782451,7.54700563 18.8722169,6.63562535 16.2512592,6.63562535 C12.4152592,6.63562535 8.76638592,9.86370986 7.90272394,13.9280479 L7.88616056,14.0037662 C6.97418873,18.2956535 9.32047042,21.3726958 13.5378225,21.3726958 C15.3225268,21.3726958 16.7708366,20.9925268 18.0257099,20.2710338 L18.7121042,17.0421606 L13.4701887,17.0421606 L14.6162169,11.6492028 L26.8474845,11.6492028 L24.3038225,23.6134845 C21.0004141,25.9301887 16.7087239,27.7156817 11.8848366,27.7156817 C3.60452676,27.7156817 -1.37592394,22.0184704 0.335822535,13.965907" id="Fill-1" fill="#F48222" mask="url(#mask-2)"></path>
                            </g>
                            <path d="M50.6590986,14.1630901 L50.6750704,14.0871746 C51.4904225,10.2513718 49.4282817,6.90872394 45.3641408,6.90872394 C41.3378592,6.90872394 37.9463099,10.1754563 37.1315493,14.0112592 L37.1149859,14.0871746 C36.3002254,17.9237662 38.362169,21.2656254 42.3886479,21.2656254 C46.4527887,21.2656254 49.8437465,17.9996817 50.6590986,14.1630901 M29.5403944,14.1630901 L29.5563662,14.0871746 C31.1789859,6.45263944 38.6484789,0.261484507 46.8528732,0.261484507 C55.0572676,0.261484507 59.8348169,6.37692113 58.2121972,14.0112592 L58.1964225,14.0871746 C56.5730141,21.7217099 49.1041127,27.9128648 40.8997183,27.9128648 C32.6947324,27.9128648 27.9171831,21.7976254 29.5403944,14.1630901" id="Fill-4" fill="#F48222"></path>
                            <polygon id="Fill-6" fill="#FFFFFF" points="77.7169972 19.5276732 77.7197577 19.5304338 77.7148282 19.5339831 77.7142366 19.5304338"></polygon>
                            <polygon id="Fill-8" fill="#606060" points="90.5570085 19.5307493 90.5548394 19.5335099 90.5522761 19.5307493 90.5564169 19.5279887"></polygon>
                            <polygon id="Fill-10" fill="#333333" points="77.7169972 19.5276732 77.7142366 19.5304338 77.7148282 19.5339831 77.7197577 19.5304338"></polygon>
                            <path d="M96.1880845,27.912293 L85.8483944,27.912293 L84.3858873,24.8567437 L93.0434085,16.1252789 L97.7969014,26.0497014 C98.177662,26.842969 97.2546479,27.912293 96.1880845,27.912293" id="Fill-12" fill="#3C80F3"></path>
                            <path d="M103.841155,2.49474085 L93.8402254,12.2797549 L89.7883099,3.68138873 L93.3869014,0.162853521 L103.092451,0.162853521 C104.428169,0.162853521 104.86,1.50192394 103.841155,2.49474085" id="Fill-14" fill="#3C80F3"></path>
                            <path d="M91.8277155,13.8201493 C91.7807859,14.2099803 78.7643352,27.034769 78.7643352,27.034769 C78.2061099,27.5837268 77.4252648,27.9136141 76.6897718,27.9136141 L65.0289549,27.9136141 L73.3230676,19.7975577 L60.6156028,19.7975577 L67.1959972,13.8201493 L91.8277155,13.8201493 Z" id="Fill-16" fill="#F1612F"></path>
                        </g>
                        <g id="Group-21" transform="translate(63.690141, 0.452732)">
                            <mask id="mask-4" fill="white">
                                <use xlink:href="#path-3"></use>
                            </mask>
                            <g id="Clip-20"></g>
                            <path d="M8.8771831,0.161295775 L12.7620845,8.2704507 L0.0581690141,8.2704507 L3.50571831,13.820169 L28.137345,13.820169 C28.1664225,13.5723099 22.1371549,1.03974648 22.1371549,1.03974648 L22.1371549,1.03974648 C21.8735211,0.491183099 21.2748732,0.161295775 20.538,0.161295775 L20.538,0.161295775 L8.8771831,0.161295775 Z" id="Fill-19" fill="url(#linearGradient-5)" mask="url(#mask-4)"></path>
                        </g>
                        <g id="Group-72" transform="translate(2.563380, 0.058366)">
                            <polygon id="Fill-22" fill="#F48222" points="64.632538 14.2145155 58.0521437 20.1919239 61.1843972 8.66499437"></polygon>
                            <path d="M97.007538,23.2588507 L102.816946,18.0747099 C104.337425,19.9826535 106.210468,21.0365972 108.470777,21.0365972 C110.965932,21.0365972 112.486411,19.7509634 112.486411,18.3858648 C112.486411,17.2938648 111.746777,16.5922873 109.251623,16.5922873 L105.781792,16.5922873 L105.66427,12.5384 L112.953144,7.77978028 L102.816946,7.77978028 L104.727848,0.684738028 L122.172045,0.684738028 C123.949651,0.684738028 125.240411,2.37518873 124.771904,4.09009014 L123.987707,6.96087887 L116.073566,11.9129352 C119.543397,12.9670761 121.375228,15.4208225 121.375228,18.3858648 C121.375228,24.7793296 116.384721,28.5603155 108.743876,28.5603155 C103.829679,28.5603155 99.737538,26.8460056 97.007538,23.2588507" id="Fill-24" fill="#3C80F3"></path>
                            <path d="M138.231879,18.1890761 C138.231879,16.7859211 137.219146,15.6939211 135.69847,15.6939211 C133.670048,15.6939211 132.228837,17.6050197 132.228837,19.6334423 C132.228837,20.3350197 132.460527,20.9573296 132.889006,21.3858085 C133.320837,21.8176394 133.981006,22.1285972 134.762048,22.1285972 C136.79047,22.1285972 138.231879,20.2176958 138.231879,18.1890761 M126.654273,25.5603718 C124.819485,23.7253859 123.806949,21.1921746 123.806949,18.2302873 C123.806949,13.5511324 125.60033,8.32578028 129.187682,4.73862535 C131.914527,2.01178028 135.69847,0.138738028 140.688977,0.138738028 C143.068977,0.138738028 145.241935,0.541583099 147.090724,1.31631549 C148.651231,1.97037183 149.26033,3.8595831 148.342442,5.28107606 L145.796611,9.22414648 C144.390301,8.01462535 142.327175,7.11941408 140.571456,7.11941408 C138.504977,7.11941408 136.593682,7.93535775 135.22878,9.30045634 C134.489146,10.0432451 133.866837,10.9765127 133.435203,12.0304563 C134.99709,10.8623437 137.063569,10.0432451 139.635034,10.0432451 C143.574555,10.0432451 147.002977,12.6939775 147.002977,17.2145972 C147.002977,23.6873296 141.507879,28.522062 134.800301,28.522062 C131.371682,28.522062 128.524161,27.430062 126.654273,25.5603718" id="Fill-26" fill="#3C80F3"></path>
                            <path d="M146.822062,23.7667155 L152.123724,18.4240394 C154.072682,20.2176169 156.139358,21.1920958 158.713977,21.1920958 C161.2884,21.1920958 162.767668,19.8271944 162.767668,18.0334197 C162.767668,16.7097296 161.754935,15.6557859 159.6504,15.6557859 C158.167977,15.6557859 156.802879,16.2017859 155.634569,17.0589408 L150.99347,14.1733634 L155.361668,0.684659155 L171.333104,0.684659155 C173.107555,0.684659155 174.397921,2.3699831 173.934935,4.08291268 L172.903865,7.89722254 L160.1964,7.89722254 L159.259977,10.7829972 C160.583668,10.2750535 161.948766,10.0431662 163.431189,10.0431662 C168.500963,10.0431662 171.774006,12.8877296 171.774006,17.411307 C171.774006,23.9603493 166.627921,28.5221803 158.793245,28.5221803 C153.685611,28.5221803 149.199893,26.1445465 146.822062,23.7667155" id="Fill-29" fill="#3C80F3"></path>
                            <polygon id="Fill-31" fill="#F48222" points="0.0235830986 33.0334732 1.99423099 33.0334732 2.21586479 38.8712761 5.68904789 33.0092197 7.31482254 33.0092197 7.70899155 38.8712761 11.0593296 33.0334732 13.2019211 33.0334732 7.93062535 41.7166282 6.16938592 41.7166282 5.75037183 36.1866282 2.3755831 41.7166282 0.639385915 41.7166282"></polygon>
                            <polygon id="Fill-33" fill="#F48222" points="14.2138254 33.0334732 16.1111211 33.0334732 15.1995437 36.4453324 18.6482761 36.4453324 19.559262 33.0334732 21.4563606 33.0334732 19.1408394 41.6553042 17.2435437 41.6553042 18.1801634 38.1941493 14.7312338 38.1941493 13.7954028 41.6553042 11.898107 41.6553042"></polygon>
                            <path d="M26.8153634,38.0467155 L26.4211944,35.2015606 L24.5238986,38.0467155 L26.8153634,38.0467155 Z M26.0635042,32.9722085 L27.8866592,32.9722085 L29.2535324,41.6551662 L27.3079268,41.6551662 L27.0369972,39.7215887 L23.3906873,39.7215887 L22.0857296,41.6551662 L20.0409408,41.6551662 L26.0635042,32.9722085 Z" id="Fill-35" fill="#F48222"></path>
                            <polygon id="Fill-37" fill="#F48222" points="32.9119493 34.7824085 30.2884282 34.7824085 30.756738 33.0333944 37.9002873 33.0333944 37.4319775 34.7824085 34.8086535 34.7824085 32.9612451 41.6552254 31.0645408 41.6552254"></polygon>
                            <path d="M39.428338,40.1898197 L40.8573239,38.9824676 C41.5344507,39.7215099 42.2857183,40.1158761 43.2712394,40.1158761 C44.0347324,40.1158761 44.5892113,39.7585803 44.5892113,39.2163268 C44.5892113,38.7979042 44.2812113,38.5512282 43.1237465,38.0831155 C42.0027606,37.6276225 41.0050141,37.0240451 41.0050141,35.755369 C41.0050141,33.9941296 42.581493,32.9102141 44.4287042,32.9102141 C45.9069859,32.9102141 46.9289859,33.4153972 47.656,34.191707 L46.3502535,35.4966648 C45.6973803,34.8936789 45.1186479,34.572862 44.2812113,34.572862 C43.4808451,34.572862 43.0247606,35.0163268 43.0247606,35.447369 C43.0247606,35.9036507 43.3696338,36.1002423 44.5399155,36.5805803 C45.7224225,37.0609183 46.6091549,37.6524676 46.6091549,38.9083268 C46.6091549,40.7194535 44.9954085,41.7785239 43.1850704,41.7785239 C41.5224225,41.7785239 40.2415211,41.2362704 39.428338,40.1898197" id="Fill-39" fill="#F48222"></path>
                            <polygon id="Fill-41" fill="#F48222" points="49.7755408 33.0334732 51.6728366 33.0334732 50.7612592 36.4453324 54.2094 36.4453324 55.1209775 33.0334732 57.0182732 33.0334732 54.7025549 41.6553042 52.8054563 41.6553042 53.7418789 38.1941493 50.2931465 38.1941493 49.3571183 41.6553042 47.4600197 41.6553042"></polygon>
                            <path d="M64.285831,36.8272169 C64.285831,35.5457239 63.5103099,34.6349352 62.0935493,34.6349352 C60.2832113,34.6349352 59.1007042,36.3711324 59.1007042,37.8614423 C59.1007042,39.1429352 59.8768169,40.0537239 61.2929859,40.0537239 C63.1033239,40.0537239 64.285831,38.3175268 64.285831,36.8272169 M57.1300563,37.9846817 C57.1300563,35.4102592 59.2241408,32.8859211 62.3151831,32.8859211 C64.6926197,32.8859211 66.2564789,34.5357521 66.2564789,36.7039775 C66.2564789,39.2784 64.1625915,41.802738 61.0713521,41.802738 C58.694507,41.802738 57.1300563,40.1527099 57.1300563,37.9846817" id="Fill-43" fill="#F48222"></path>
                            <path d="M66.9847746,38.8841521 C66.9847746,38.4529127 67.0583239,37.9846028 67.1943803,37.5042648 L68.3889155,33.0335324 L70.2854225,33.0335324 L69.0417887,37.6768 C68.9554225,37.9725746 68.9063239,38.2555324 68.9063239,38.6132225 C68.9063239,39.4628845 69.4359577,40.0416169 70.408662,40.0416169 C70.9753662,40.0416169 71.4434789,39.8570535 71.8128028,39.4999549 C72.1819296,39.1300394 72.4656761,38.6006028 72.6502394,37.8984338 L73.9559859,33.0335324 L75.852493,33.0335324 L74.4733944,38.1693634 C74.1776197,39.2783211 73.7463803,40.1279831 73.1426056,40.7315606 C72.4406338,41.4335324 71.4927746,41.790631 70.2112817,41.790631 C68.2163803,41.790631 66.9847746,40.7193352 66.9847746,38.8841521" id="Fill-45" fill="#F48222"></path>
                            <polygon id="Fill-47" fill="#F48222" points="77.7874704 33.0334732 79.6847662 33.0334732 77.8367662 39.9311352 82.1357521 39.9311352 81.6674423 41.6553042 75.4717521 41.6553042"></polygon>
                            <path d="M86.2873437,39.9432423 C87.4327803,39.9432423 88.4796254,39.5861437 89.1687803,38.8962 C89.7232592,38.3417211 90.0312592,37.5784254 90.0312592,36.7409887 C90.0312592,36.1494394 89.8466958,35.6939465 89.5266676,35.3739183 C89.1447239,34.9919746 88.5161042,34.7454958 87.5432028,34.7454958 L86.6195972,34.7454958 L85.2152592,39.9432423 L86.2873437,39.9432423 Z M85.1783859,33.0335521 L87.6914845,33.0335521 C89.3663577,33.0335521 90.4132028,33.4896366 91.0660761,34.1417211 C91.7061324,34.782369 92.001907,35.6200028 92.001907,36.6668479 C92.001907,37.960369 91.5093437,39.1428761 90.585738,40.0664817 C89.5509211,41.100707 88.0606113,41.6551859 86.0649211,41.6551859 L82.8626676,41.6551859 L85.1783859,33.0335521 Z" id="Fill-49" fill="#F48222"></path>
                            <polygon id="Fill-51" fill="#3C80F3" points="96.4499634 33.0334732 98.4206113 33.0334732 98.6422451 38.8712761 102.115428 33.0092197 103.741006 33.0092197 104.135175 38.8712761 107.48571 33.0334732 109.628104 33.0334732 104.356808 41.7166282 102.595569 41.7166282 102.176555 36.1866282 98.8019634 41.7166282 97.0657662 41.7166282"></polygon>
                            <polygon id="Fill-53" fill="#3C80F3" points="110.640127 33.0334732 117.081704 33.0334732 116.626211 34.7211634 112.069113 34.7211634 111.600803 36.4822056 115.604211 36.4822056 115.148127 38.1450507 111.145507 38.1450507 110.652944 39.9676141 115.283592 39.9676141 114.828099 41.6553042 108.324606 41.6553042"></polygon>
                            <path d="M123.488223,39.9432423 C124.633659,39.9432423 125.680504,39.5861437 126.369856,38.8962 C126.924335,38.3417211 127.232138,37.5784254 127.232138,36.7409887 C127.232138,36.1494394 127.047575,35.6939465 126.727744,35.3739183 C126.345603,34.9919746 125.716983,34.7454958 124.744082,34.7454958 L123.820476,34.7454958 L122.416335,39.9432423 L123.488223,39.9432423 Z M122.379265,33.0335521 L124.892363,33.0335521 C126.567237,33.0335521 127.614279,33.4896366 128.266955,34.1417211 C128.907011,34.782369 129.202786,35.6200028 129.202786,36.6668479 C129.202786,37.960369 128.710223,39.1428761 127.786814,40.0664817 C126.7518,41.100707 125.26149,41.6551859 123.265997,41.6551859 L120.063744,41.6551859 L122.379265,33.0335521 Z" id="Fill-55" fill="#3C80F3"></path>
                            <path d="M137.148338,36.8272169 C137.148338,35.5457239 136.37262,34.6349352 134.955859,34.6349352 C133.145521,34.6349352 131.963211,36.3711324 131.963211,37.8614423 C131.963211,39.1429352 132.739324,40.0537239 134.155493,40.0537239 C135.965831,40.0537239 137.148338,38.3175268 137.148338,36.8272169 M129.992563,37.9846817 C129.992563,35.4102592 132.086451,32.8859211 135.17769,32.8859211 C137.555127,32.8859211 139.118986,34.5357521 139.118986,36.7039775 C139.118986,39.2784 137.024901,41.802738 133.933859,41.802738 C131.557014,41.802738 129.992563,40.1527099 129.992563,37.9846817" id="Fill-57" fill="#3C80F3"></path>
                            <polygon id="Fill-59" fill="#3C80F3" points="146.769099 34.7824085 144.145577 34.7824085 144.613887 33.0333944 151.757634 33.0333944 151.289324 34.7824085 148.665803 34.7824085 146.818394 41.6552254 144.921887 41.6552254"></polygon>
                            <path d="M158.384425,36.8272169 C158.384425,35.5457239 157.608904,34.6349352 156.192144,34.6349352 C154.381608,34.6349352 153.199299,36.3711324 153.199299,37.8614423 C153.199299,39.1429352 153.975608,40.0537239 155.39158,40.0537239 C157.201918,40.0537239 158.384425,38.3175268 158.384425,36.8272169 M151.228651,37.9846817 C151.228651,35.4102592 153.322538,32.8859211 156.413777,32.8859211 C158.791214,32.8859211 160.355073,34.5357521 160.355073,36.7039775 C160.355073,39.2784 158.261186,41.802738 155.169946,41.802738 C152.793101,41.802738 151.228651,40.1527099 151.228651,37.9846817" id="Fill-61" fill="#3C80F3"></path>
                            <path d="M163.657732,39.9432423 C164.803169,39.9432423 165.850014,39.5861437 166.539169,38.8962 C167.093845,38.3417211 167.401648,37.5784254 167.401648,36.7409887 C167.401648,36.1494394 167.217085,35.6939465 166.897056,35.3739183 C166.514915,34.9919746 165.886493,34.7454958 164.913592,34.7454958 L163.989986,34.7454958 L162.585648,39.9432423 L163.657732,39.9432423 Z M162.548775,33.0335521 L165.061676,33.0335521 C166.736549,33.0335521 167.783789,33.4896366 168.436465,34.1417211 C169.076521,34.782369 169.372296,35.6200028 169.372296,36.6668479 C169.372296,37.960369 168.879732,39.1428761 167.956127,40.0664817 C166.92131,41.100707 165.431,41.6551859 163.43531,41.6551859 L160.233254,41.6551859 L162.548775,33.0335521 Z" id="Fill-63" fill="#3C80F3"></path>
                            <path d="M175.101076,38.0467155 L174.706907,35.2015606 L172.809808,38.0467155 L175.101076,38.0467155 Z M174.349808,32.9722085 L176.172372,32.9722085 L177.539245,41.6551662 L175.593639,41.6551662 L175.32271,39.7215887 L171.676597,39.7215887 L170.371639,41.6551662 L168.326851,41.6551662 L174.349808,32.9722085 Z" id="Fill-65" fill="#3C80F3"></path>
                            <polygon id="Fill-67" fill="#3C80F3" points="179.9546 38.2555521 178.169304 33.0335521 180.275417 33.0335521 181.285389 36.6055239 184.240966 33.0335521 186.532234 33.0335521 181.815023 38.4280873 180.940318 41.6551859 179.043811 41.6551859"></polygon>
                            <path d="M188.306389,36.7289211 L188.38053,36.6670056 C189.957008,36.5563859 190.843544,36.1251465 190.843544,35.4103577 C190.843544,34.9428366 190.523515,34.647062 189.821544,34.647062 C189.230192,34.647062 188.589938,34.9177944 188.060501,35.3738789 L187.074783,34.1296535 C187.862924,33.3292873 188.984107,32.922893 190.080248,32.922893 C191.817234,32.922893 192.827206,33.9941887 192.827206,35.1644704 C192.827206,36.6056817 191.743093,37.5415127 189.674051,37.8615408 L189.316163,38.7238225 L188.060501,38.7238225 L188.306389,36.7289211 Z M187.468952,39.6844986 L189.464445,39.6844986 L188.935008,41.6551465 L186.939318,41.6551465 L187.468952,39.6844986 Z" id="Fill-69" fill="#3C80F3"></path>
                        </g>
                    </g>
                </g>
            </g>
        </g>
    </g>
</svg>