<?xml version="1.0" encoding="UTF-8"?>
<svg width="251px" height="251px" viewBox="0 0 251 251" version="1.1" xmlns="http://www.w3.org/2000/svg" xmlns:xlink="http://www.w3.org/1999/xlink">
    <!-- Generator: Sketch 52.6 (67491) - http://www.bohemiancoding.com/sketch -->
    <title>Fill 1</title>
    <desc>Created with Sketch.</desc>
    <g id="Page-1" stroke="none" stroke-width="1" fill="none" fill-rule="evenodd" fill-opacity="0.1">
        <g id="Homepage" transform="translate(-1189.000000, -632.000000)" fill="#BFC6D0">
            <g id="Featured-Listings" transform="translate(147.000000, 632.000000)">
                <path d="M1287.096,240.096 C1284.335,240.096 1282.096,242.334 1282.096,245.096 C1282.096,247.858 1284.335,250.096 1287.096,250.096 C1289.857,250.096 1292.096,247.858 1292.096,245.096 C1292.096,242.334 1289.857,240.096 1287.096,240.096 M1267.088,240.096 C1264.326,240.096 1262.088,242.334 1262.088,245.096 C1262.088,247.858 1264.326,250.096 1267.088,250.096 C1269.849,250.096 1272.088,247.858 1272.088,245.096 C1272.088,242.334 1269.849,240.096 1267.088,240.096 M1247.08,240.096 C1244.319,240.096 1242.08,242.334 1242.08,245.096 C1242.08,247.858 1244.319,250.096 1247.08,250.096 C1249.842,250.096 1252.08,247.858 1252.08,245.096 C1252.08,242.334 1249.842,240.096 1247.08,240.096 M1227.072,240.096 C1224.31,240.096 1222.072,242.334 1222.072,245.096 C1222.072,247.858 1224.31,250.096 1227.072,250.096 C1229.833,250.096 1232.072,247.858 1232.072,245.096 C1232.072,242.334 1229.833,240.096 1227.072,240.096 M1207.064,240.096 C1204.303,240.096 1202.064,242.334 1202.064,245.096 C1202.064,247.858 1204.303,250.096 1207.064,250.096 C1209.825,250.096 1212.064,247.858 1212.064,245.096 C1212.064,242.334 1209.825,240.096 1207.064,240.096 M1187.056,240.096 C1184.295,240.096 1182.056,242.334 1182.056,245.096 C1182.056,247.858 1184.295,250.096 1187.056,250.096 C1189.817,250.096 1192.056,247.858 1192.056,245.096 C1192.056,242.334 1189.817,240.096 1187.056,240.096 M1167.048,240.096 C1164.286,240.096 1162.048,242.334 1162.048,245.096 C1162.048,247.858 1164.286,250.096 1167.048,250.096 C1169.809,250.096 1172.048,247.858 1172.048,245.096 C1172.048,242.334 1169.809,240.096 1167.048,240.096 M1147.04,240.096 C1144.279,240.096 1142.04,242.334 1142.04,245.096 C1142.04,247.858 1144.279,250.096 1147.04,250.096 C1149.802,250.096 1152.04,247.858 1152.04,245.096 C1152.04,242.334 1149.802,240.096 1147.04,240.096 M1127.032,240.096 C1124.271,240.096 1122.032,242.334 1122.032,245.096 C1122.032,247.858 1124.271,250.096 1127.032,250.096 C1129.793,250.096 1132.032,247.858 1132.032,245.096 C1132.032,242.334 1129.793,240.096 1127.032,240.096 M1107.024,240.096 C1104.263,240.096 1102.024,242.334 1102.024,245.096 C1102.024,247.858 1104.263,250.096 1107.024,250.096 C1109.785,250.096 1112.024,247.858 1112.024,245.096 C1112.024,242.334 1109.785,240.096 1107.024,240.096 M1087.016,240.096 C1084.255,240.096 1082.016,242.334 1082.016,245.096 C1082.016,247.858 1084.255,250.096 1087.016,250.096 C1089.778,250.096 1092.016,247.858 1092.016,245.096 C1092.016,242.334 1089.778,240.096 1087.016,240.096 M1067.008,240.096 C1064.246,240.096 1062.008,242.334 1062.008,245.096 C1062.008,247.858 1064.246,250.096 1067.008,250.096 C1069.769,250.096 1072.008,247.858 1072.008,245.096 C1072.008,242.334 1069.769,240.096 1067.008,240.096 M1047,240.096 C1044.239,240.096 1042,242.334 1042,245.096 C1042,247.858 1044.239,250.096 1047,250.096 C1049.762,250.096 1052,247.858 1052,245.096 C1052,242.334 1049.762,240.096 1047,240.096 M1287.096,220.088 C1284.335,220.088 1282.096,222.326 1282.096,225.088 C1282.096,227.85 1284.335,230.088 1287.096,230.088 C1289.857,230.088 1292.096,227.85 1292.096,225.088 C1292.096,222.326 1289.857,220.088 1287.096,220.088 M1267.088,220.088 C1264.326,220.088 1262.088,222.326 1262.088,225.088 C1262.088,227.85 1264.326,230.088 1267.088,230.088 C1269.849,230.088 1272.088,227.85 1272.088,225.088 C1272.088,222.326 1269.849,220.088 1267.088,220.088 M1247.08,220.088 C1244.319,220.088 1242.08,222.326 1242.08,225.088 C1242.08,227.85 1244.319,230.088 1247.08,230.088 C1249.842,230.088 1252.08,227.85 1252.08,225.088 C1252.08,222.326 1249.842,220.088 1247.08,220.088 M1227.072,220.088 C1224.31,220.088 1222.072,222.326 1222.072,225.088 C1222.072,227.85 1224.31,230.088 1227.072,230.088 C1229.833,230.088 1232.072,227.85 1232.072,225.088 C1232.072,222.326 1229.833,220.088 1227.072,220.088 M1207.064,220.088 C1204.303,220.088 1202.064,222.326 1202.064,225.088 C1202.064,227.85 1204.303,230.088 1207.064,230.088 C1209.825,230.088 1212.064,227.85 1212.064,225.088 C1212.064,222.326 1209.825,220.088 1207.064,220.088 M1187.056,220.088 C1184.295,220.088 1182.056,222.326 1182.056,225.088 C1182.056,227.85 1184.295,230.088 1187.056,230.088 C1189.817,230.088 1192.056,227.85 1192.056,225.088 C1192.056,222.326 1189.817,220.088 1187.056,220.088 M1167.048,220.088 C1164.286,220.088 1162.048,222.326 1162.048,225.088 C1162.048,227.85 1164.286,230.088 1167.048,230.088 C1169.809,230.088 1172.048,227.85 1172.048,225.088 C1172.048,222.326 1169.809,220.088 1167.048,220.088 M1147.04,220.088 C1144.279,220.088 1142.04,222.326 1142.04,225.088 C1142.04,227.85 1144.279,230.088 1147.04,230.088 C1149.802,230.088 1152.04,227.85 1152.04,225.088 C1152.04,222.326 1149.802,220.088 1147.04,220.088 M1127.032,220.088 C1124.271,220.088 1122.032,222.326 1122.032,225.088 C1122.032,227.85 1124.271,230.088 1127.032,230.088 C1129.793,230.088 1132.032,227.85 1132.032,225.088 C1132.032,222.326 1129.793,220.088 1127.032,220.088 M1107.024,220.088 C1104.263,220.088 1102.024,222.326 1102.024,225.088 C1102.024,227.85 1104.263,230.088 1107.024,230.088 C1109.785,230.088 1112.024,227.85 1112.024,225.088 C1112.024,222.326 1109.785,220.088 1107.024,220.088 M1087.016,220.088 C1084.255,220.088 1082.016,222.326 1082.016,225.088 C1082.016,227.85 1084.255,230.088 1087.016,230.088 C1089.778,230.088 1092.016,227.85 1092.016,225.088 C1092.016,222.326 1089.778,220.088 1087.016,220.088 M1067.008,220.088 C1064.246,220.088 1062.008,222.326 1062.008,225.088 C1062.008,227.85 1064.246,230.088 1067.008,230.088 C1069.769,230.088 1072.008,227.85 1072.008,225.088 C1072.008,222.326 1069.769,220.088 1067.008,220.088 M1047,220.088 C1044.239,220.088 1042,222.326 1042,225.088 C1042,227.85 1044.239,230.088 1047,230.088 C1049.762,230.088 1052,227.85 1052,225.088 C1052,222.326 1049.762,220.088 1047,220.088 M1287.096,200.08 C1284.335,200.08 1282.096,202.319 1282.096,205.08 C1282.096,207.841 1284.335,210.08 1287.096,210.08 C1289.857,210.08 1292.096,207.841 1292.096,205.08 C1292.096,202.319 1289.857,200.08 1287.096,200.08 M1267.088,200.08 C1264.326,200.08 1262.088,202.319 1262.088,205.08 C1262.088,207.841 1264.326,210.08 1267.088,210.08 C1269.849,210.08 1272.088,207.841 1272.088,205.08 C1272.088,202.319 1269.849,200.08 1267.088,200.08 M1247.08,200.08 C1244.319,200.08 1242.08,202.319 1242.08,205.08 C1242.08,207.841 1244.319,210.08 1247.08,210.08 C1249.842,210.08 1252.08,207.841 1252.08,205.08 C1252.08,202.319 1249.842,200.08 1247.08,200.08 M1227.072,200.08 C1224.31,200.08 1222.072,202.319 1222.072,205.08 C1222.072,207.841 1224.31,210.08 1227.072,210.08 C1229.833,210.08 1232.072,207.841 1232.072,205.08 C1232.072,202.319 1229.833,200.08 1227.072,200.08 M1207.064,200.08 C1204.303,200.08 1202.064,202.319 1202.064,205.08 C1202.064,207.841 1204.303,210.08 1207.064,210.08 C1209.825,210.08 1212.064,207.841 1212.064,205.08 C1212.064,202.319 1209.825,200.08 1207.064,200.08 M1187.056,200.08 C1184.295,200.08 1182.056,202.319 1182.056,205.08 C1182.056,207.841 1184.295,210.08 1187.056,210.08 C1189.817,210.08 1192.056,207.841 1192.056,205.08 C1192.056,202.319 1189.817,200.08 1187.056,200.08 M1167.048,200.08 C1164.286,200.08 1162.048,202.319 1162.048,205.08 C1162.048,207.841 1164.286,210.08 1167.048,210.08 C1169.809,210.08 1172.048,207.841 1172.048,205.08 C1172.048,202.319 1169.809,200.08 1167.048,200.08 M1147.04,200.08 C1144.279,200.08 1142.04,202.319 1142.04,205.08 C1142.04,207.841 1144.279,210.08 1147.04,210.08 C1149.802,210.08 1152.04,207.841 1152.04,205.08 C1152.04,202.319 1149.802,200.08 1147.04,200.08 M1127.032,200.08 C1124.271,200.08 1122.032,202.319 1122.032,205.08 C1122.032,207.841 1124.271,210.08 1127.032,210.08 C1129.793,210.08 1132.032,207.841 1132.032,205.08 C1132.032,202.319 1129.793,200.08 1127.032,200.08 M1107.024,200.08 C1104.263,200.08 1102.024,202.319 1102.024,205.08 C1102.024,207.841 1104.263,210.08 1107.024,210.08 C1109.785,210.08 1112.024,207.841 1112.024,205.08 C1112.024,202.319 1109.785,200.08 1107.024,200.08 M1087.016,200.08 C1084.255,200.08 1082.016,202.319 1082.016,205.08 C1082.016,207.841 1084.255,210.08 1087.016,210.08 C1089.778,210.08 1092.016,207.841 1092.016,205.08 C1092.016,202.319 1089.778,200.08 1087.016,200.08 M1067.008,200.08 C1064.246,200.08 1062.008,202.319 1062.008,205.08 C1062.008,207.841 1064.246,210.08 1067.008,210.08 C1069.769,210.08 1072.008,207.841 1072.008,205.08 C1072.008,202.319 1069.769,200.08 1067.008,200.08 M1047,200.08 C1044.239,200.08 1042,202.319 1042,205.08 C1042,207.841 1044.239,210.08 1047,210.08 C1049.762,210.08 1052,207.841 1052,205.08 C1052,202.319 1049.762,200.08 1047,200.08 M1287.096,180.072 C1284.335,180.072 1282.096,182.311 1282.096,185.072 C1282.096,187.833 1284.335,190.072 1287.096,190.072 C1289.857,190.072 1292.096,187.833 1292.096,185.072 C1292.096,182.311 1289.857,180.072 1287.096,180.072 M1267.088,180.072 C1264.326,180.072 1262.088,182.311 1262.088,185.072 C1262.088,187.833 1264.326,190.072 1267.088,190.072 C1269.849,190.072 1272.088,187.833 1272.088,185.072 C1272.088,182.311 1269.849,180.072 1267.088,180.072 M1247.08,180.072 C1244.319,180.072 1242.08,182.311 1242.08,185.072 C1242.08,187.833 1244.319,190.072 1247.08,190.072 C1249.842,190.072 1252.08,187.833 1252.08,185.072 C1252.08,182.311 1249.842,180.072 1247.08,180.072 M1227.072,180.072 C1224.31,180.072 1222.072,182.311 1222.072,185.072 C1222.072,187.833 1224.31,190.072 1227.072,190.072 C1229.833,190.072 1232.072,187.833 1232.072,185.072 C1232.072,182.311 1229.833,180.072 1227.072,180.072 M1207.064,180.072 C1204.303,180.072 1202.064,182.311 1202.064,185.072 C1202.064,187.833 1204.303,190.072 1207.064,190.072 C1209.825,190.072 1212.064,187.833 1212.064,185.072 C1212.064,182.311 1209.825,180.072 1207.064,180.072 M1187.056,180.072 C1184.295,180.072 1182.056,182.311 1182.056,185.072 C1182.056,187.833 1184.295,190.072 1187.056,190.072 C1189.817,190.072 1192.056,187.833 1192.056,185.072 C1192.056,182.311 1189.817,180.072 1187.056,180.072 M1167.048,180.072 C1164.286,180.072 1162.048,182.311 1162.048,185.072 C1162.048,187.833 1164.286,190.072 1167.048,190.072 C1169.809,190.072 1172.048,187.833 1172.048,185.072 C1172.048,182.311 1169.809,180.072 1167.048,180.072 M1147.04,180.072 C1144.279,180.072 1142.04,182.311 1142.04,185.072 C1142.04,187.833 1144.279,190.072 1147.04,190.072 C1149.802,190.072 1152.04,187.833 1152.04,185.072 C1152.04,182.311 1149.802,180.072 1147.04,180.072 M1127.032,180.072 C1124.271,180.072 1122.032,182.311 1122.032,185.072 C1122.032,187.833 1124.271,190.072 1127.032,190.072 C1129.793,190.072 1132.032,187.833 1132.032,185.072 C1132.032,182.311 1129.793,180.072 1127.032,180.072 M1107.024,180.072 C1104.263,180.072 1102.024,182.311 1102.024,185.072 C1102.024,187.833 1104.263,190.072 1107.024,190.072 C1109.785,190.072 1112.024,187.833 1112.024,185.072 C1112.024,182.311 1109.785,180.072 1107.024,180.072 M1087.016,180.072 C1084.255,180.072 1082.016,182.311 1082.016,185.072 C1082.016,187.833 1084.255,190.072 1087.016,190.072 C1089.778,190.072 1092.016,187.833 1092.016,185.072 C1092.016,182.311 1089.778,180.072 1087.016,180.072 M1067.008,180.072 C1064.246,180.072 1062.008,182.311 1062.008,185.072 C1062.008,187.833 1064.246,190.072 1067.008,190.072 C1069.769,190.072 1072.008,187.833 1072.008,185.072 C1072.008,182.311 1069.769,180.072 1067.008,180.072 M1047,180.072 C1044.239,180.072 1042,182.311 1042,185.072 C1042,187.833 1044.239,190.072 1047,190.072 C1049.762,190.072 1052,187.833 1052,185.072 C1052,182.311 1049.762,180.072 1047,180.072 M1287.096,160.064 C1284.335,160.064 1282.096,162.303 1282.096,165.064 C1282.096,167.825 1284.335,170.064 1287.096,170.064 C1289.857,170.064 1292.096,167.825 1292.096,165.064 C1292.096,162.303 1289.857,160.064 1287.096,160.064 M1267.088,160.064 C1264.326,160.064 1262.088,162.303 1262.088,165.064 C1262.088,167.825 1264.326,170.064 1267.088,170.064 C1269.849,170.064 1272.088,167.825 1272.088,165.064 C1272.088,162.303 1269.849,160.064 1267.088,160.064 M1247.08,160.064 C1244.319,160.064 1242.08,162.303 1242.08,165.064 C1242.08,167.825 1244.319,170.064 1247.08,170.064 C1249.842,170.064 1252.08,167.825 1252.08,165.064 C1252.08,162.303 1249.842,160.064 1247.08,160.064 M1227.072,160.064 C1224.31,160.064 1222.072,162.303 1222.072,165.064 C1222.072,167.825 1224.31,170.064 1227.072,170.064 C1229.833,170.064 1232.072,167.825 1232.072,165.064 C1232.072,162.303 1229.833,160.064 1227.072,160.064 M1207.064,160.064 C1204.303,160.064 1202.064,162.303 1202.064,165.064 C1202.064,167.825 1204.303,170.064 1207.064,170.064 C1209.825,170.064 1212.064,167.825 1212.064,165.064 C1212.064,162.303 1209.825,160.064 1207.064,160.064 M1187.056,160.064 C1184.295,160.064 1182.056,162.303 1182.056,165.064 C1182.056,167.825 1184.295,170.064 1187.056,170.064 C1189.817,170.064 1192.056,167.825 1192.056,165.064 C1192.056,162.303 1189.817,160.064 1187.056,160.064 M1167.048,160.064 C1164.286,160.064 1162.048,162.303 1162.048,165.064 C1162.048,167.825 1164.286,170.064 1167.048,170.064 C1169.809,170.064 1172.048,167.825 1172.048,165.064 C1172.048,162.303 1169.809,160.064 1167.048,160.064 M1147.04,160.064 C1144.279,160.064 1142.04,162.303 1142.04,165.064 C1142.04,167.825 1144.279,170.064 1147.04,170.064 C1149.802,170.064 1152.04,167.825 1152.04,165.064 C1152.04,162.303 1149.802,160.064 1147.04,160.064 M1127.032,160.064 C1124.271,160.064 1122.032,162.303 1122.032,165.064 C1122.032,167.825 1124.271,170.064 1127.032,170.064 C1129.793,170.064 1132.032,167.825 1132.032,165.064 C1132.032,162.303 1129.793,160.064 1127.032,160.064 M1107.024,160.064 C1104.263,160.064 1102.024,162.303 1102.024,165.064 C1102.024,167.825 1104.263,170.064 1107.024,170.064 C1109.785,170.064 1112.024,167.825 1112.024,165.064 C1112.024,162.303 1109.785,160.064 1107.024,160.064 M1087.016,160.064 C1084.255,160.064 1082.016,162.303 1082.016,165.064 C1082.016,167.825 1084.255,170.064 1087.016,170.064 C1089.778,170.064 1092.016,167.825 1092.016,165.064 C1092.016,162.303 1089.778,160.064 1087.016,160.064 M1067.008,160.064 C1064.246,160.064 1062.008,162.303 1062.008,165.064 C1062.008,167.825 1064.246,170.064 1067.008,170.064 C1069.769,170.064 1072.008,167.825 1072.008,165.064 C1072.008,162.303 1069.769,160.064 1067.008,160.064 M1047,160.064 C1044.239,160.064 1042,162.303 1042,165.064 C1042,167.825 1044.239,170.064 1047,170.064 C1049.762,170.064 1052,167.825 1052,165.064 C1052,162.303 1049.762,160.064 1047,160.064 M1287.096,140.056 C1284.335,140.056 1282.096,142.294 1282.096,145.056 C1282.096,147.818 1284.335,150.056 1287.096,150.056 C1289.857,150.056 1292.096,147.818 1292.096,145.056 C1292.096,142.294 1289.857,140.056 1287.096,140.056 M1267.088,140.056 C1264.326,140.056 1262.088,142.294 1262.088,145.056 C1262.088,147.818 1264.326,150.056 1267.088,150.056 C1269.849,150.056 1272.088,147.818 1272.088,145.056 C1272.088,142.294 1269.849,140.056 1267.088,140.056 M1247.08,140.056 C1244.319,140.056 1242.08,142.294 1242.08,145.056 C1242.08,147.818 1244.319,150.056 1247.08,150.056 C1249.842,150.056 1252.08,147.818 1252.08,145.056 C1252.08,142.294 1249.842,140.056 1247.08,140.056 M1227.072,140.056 C1224.31,140.056 1222.072,142.294 1222.072,145.056 C1222.072,147.818 1224.31,150.056 1227.072,150.056 C1229.833,150.056 1232.072,147.818 1232.072,145.056 C1232.072,142.294 1229.833,140.056 1227.072,140.056 M1207.064,140.056 C1204.303,140.056 1202.064,142.294 1202.064,145.056 C1202.064,147.818 1204.303,150.056 1207.064,150.056 C1209.825,150.056 1212.064,147.818 1212.064,145.056 C1212.064,142.294 1209.825,140.056 1207.064,140.056 M1187.056,140.056 C1184.295,140.056 1182.056,142.294 1182.056,145.056 C1182.056,147.818 1184.295,150.056 1187.056,150.056 C1189.817,150.056 1192.056,147.818 1192.056,145.056 C1192.056,142.294 1189.817,140.056 1187.056,140.056 M1167.048,140.056 C1164.286,140.056 1162.048,142.294 1162.048,145.056 C1162.048,147.818 1164.286,150.056 1167.048,150.056 C1169.809,150.056 1172.048,147.818 1172.048,145.056 C1172.048,142.294 1169.809,140.056 1167.048,140.056 M1147.04,140.056 C1144.279,140.056 1142.04,142.294 1142.04,145.056 C1142.04,147.818 1144.279,150.056 1147.04,150.056 C1149.802,150.056 1152.04,147.818 1152.04,145.056 C1152.04,142.294 1149.802,140.056 1147.04,140.056 M1127.032,140.056 C1124.271,140.056 1122.032,142.294 1122.032,145.056 C1122.032,147.818 1124.271,150.056 1127.032,150.056 C1129.793,150.056 1132.032,147.818 1132.032,145.056 C1132.032,142.294 1129.793,140.056 1127.032,140.056 M1107.024,140.056 C1104.263,140.056 1102.024,142.294 1102.024,145.056 C1102.024,147.818 1104.263,150.056 1107.024,150.056 C1109.785,150.056 1112.024,147.818 1112.024,145.056 C1112.024,142.294 1109.785,140.056 1107.024,140.056 M1087.016,140.056 C1084.255,140.056 1082.016,142.294 1082.016,145.056 C1082.016,147.818 1084.255,150.056 1087.016,150.056 C1089.778,150.056 1092.016,147.818 1092.016,145.056 C1092.016,142.294 1089.778,140.056 1087.016,140.056 M1067.008,140.056 C1064.246,140.056 1062.008,142.294 1062.008,145.056 C1062.008,147.818 1064.246,150.056 1067.008,150.056 C1069.769,150.056 1072.008,147.818 1072.008,145.056 C1072.008,142.294 1069.769,140.056 1067.008,140.056 M1047,140.056 C1044.239,140.056 1042,142.294 1042,145.056 C1042,147.818 1044.239,150.056 1047,150.056 C1049.762,150.056 1052,147.818 1052,145.056 C1052,142.294 1049.762,140.056 1047,140.056 M1287.096,120.048 C1284.335,120.048 1282.096,122.286 1282.096,125.048 C1282.096,127.81 1284.335,130.048 1287.096,130.048 C1289.857,130.048 1292.096,127.81 1292.096,125.048 C1292.096,122.286 1289.857,120.048 1287.096,120.048 M1267.088,120.048 C1264.326,120.048 1262.088,122.286 1262.088,125.048 C1262.088,127.81 1264.326,130.048 1267.088,130.048 C1269.849,130.048 1272.088,127.81 1272.088,125.048 C1272.088,122.286 1269.849,120.048 1267.088,120.048 M1247.08,120.048 C1244.319,120.048 1242.08,122.286 1242.08,125.048 C1242.08,127.81 1244.319,130.048 1247.08,130.048 C1249.842,130.048 1252.08,127.81 1252.08,125.048 C1252.08,122.286 1249.842,120.048 1247.08,120.048 M1227.072,120.048 C1224.31,120.048 1222.072,122.286 1222.072,125.048 C1222.072,127.81 1224.31,130.048 1227.072,130.048 C1229.833,130.048 1232.072,127.81 1232.072,125.048 C1232.072,122.286 1229.833,120.048 1227.072,120.048 M1207.064,120.048 C1204.303,120.048 1202.064,122.286 1202.064,125.048 C1202.064,127.81 1204.303,130.048 1207.064,130.048 C1209.825,130.048 1212.064,127.81 1212.064,125.048 C1212.064,122.286 1209.825,120.048 1207.064,120.048 M1187.056,120.048 C1184.295,120.048 1182.056,122.286 1182.056,125.048 C1182.056,127.81 1184.295,130.048 1187.056,130.048 C1189.817,130.048 1192.056,127.81 1192.056,125.048 C1192.056,122.286 1189.817,120.048 1187.056,120.048 M1167.048,120.048 C1164.286,120.048 1162.048,122.286 1162.048,125.048 C1162.048,127.81 1164.286,130.048 1167.048,130.048 C1169.809,130.048 1172.048,127.81 1172.048,125.048 C1172.048,122.286 1169.809,120.048 1167.048,120.048 M1147.04,120.048 C1144.279,120.048 1142.04,122.286 1142.04,125.048 C1142.04,127.81 1144.279,130.048 1147.04,130.048 C1149.802,130.048 1152.04,127.81 1152.04,125.048 C1152.04,122.286 1149.802,120.048 1147.04,120.048 M1127.032,120.048 C1124.271,120.048 1122.032,122.286 1122.032,125.048 C1122.032,127.81 1124.271,130.048 1127.032,130.048 C1129.793,130.048 1132.032,127.81 1132.032,125.048 C1132.032,122.286 1129.793,120.048 1127.032,120.048 M1107.024,120.048 C1104.263,120.048 1102.024,122.286 1102.024,125.048 C1102.024,127.81 1104.263,130.048 1107.024,130.048 C1109.785,130.048 1112.024,127.81 1112.024,125.048 C1112.024,122.286 1109.785,120.048 1107.024,120.048 M1087.016,120.048 C1084.255,120.048 1082.016,122.286 1082.016,125.048 C1082.016,127.81 1084.255,130.048 1087.016,130.048 C1089.778,130.048 1092.016,127.81 1092.016,125.048 C1092.016,122.286 1089.778,120.048 1087.016,120.048 M1067.008,120.048 C1064.246,120.048 1062.008,122.286 1062.008,125.048 C1062.008,127.81 1064.246,130.048 1067.008,130.048 C1069.769,130.048 1072.008,127.81 1072.008,125.048 C1072.008,122.286 1069.769,120.048 1067.008,120.048 M1047,120.048 C1044.239,120.048 1042,122.286 1042,125.048 C1042,127.81 1044.239,130.048 1047,130.048 C1049.762,130.048 1052,127.81 1052,125.048 C1052,122.286 1049.762,120.048 1047,120.048 M1287.096,100.04 C1284.335,100.04 1282.096,102.279 1282.096,105.04 C1282.096,107.801 1284.335,110.04 1287.096,110.04 C1289.857,110.04 1292.096,107.801 1292.096,105.04 C1292.096,102.279 1289.857,100.04 1287.096,100.04 M1267.088,100.04 C1264.326,100.04 1262.088,102.279 1262.088,105.04 C1262.088,107.801 1264.326,110.04 1267.088,110.04 C1269.849,110.04 1272.088,107.801 1272.088,105.04 C1272.088,102.279 1269.849,100.04 1267.088,100.04 M1247.08,100.04 C1244.319,100.04 1242.08,102.279 1242.08,105.04 C1242.08,107.801 1244.319,110.04 1247.08,110.04 C1249.842,110.04 1252.08,107.801 1252.08,105.04 C1252.08,102.279 1249.842,100.04 1247.08,100.04 M1227.072,100.04 C1224.31,100.04 1222.072,102.279 1222.072,105.04 C1222.072,107.801 1224.31,110.04 1227.072,110.04 C1229.833,110.04 1232.072,107.801 1232.072,105.04 C1232.072,102.279 1229.833,100.04 1227.072,100.04 M1207.064,100.04 C1204.303,100.04 1202.064,102.279 1202.064,105.04 C1202.064,107.801 1204.303,110.04 1207.064,110.04 C1209.825,110.04 1212.064,107.801 1212.064,105.04 C1212.064,102.279 1209.825,100.04 1207.064,100.04 M1187.056,100.04 C1184.295,100.04 1182.056,102.279 1182.056,105.04 C1182.056,107.801 1184.295,110.04 1187.056,110.04 C1189.817,110.04 1192.056,107.801 1192.056,105.04 C1192.056,102.279 1189.817,100.04 1187.056,100.04 M1167.048,100.04 C1164.286,100.04 1162.048,102.279 1162.048,105.04 C1162.048,107.801 1164.286,110.04 1167.048,110.04 C1169.809,110.04 1172.048,107.801 1172.048,105.04 C1172.048,102.279 1169.809,100.04 1167.048,100.04 M1147.04,100.04 C1144.279,100.04 1142.04,102.279 1142.04,105.04 C1142.04,107.801 1144.279,110.04 1147.04,110.04 C1149.802,110.04 1152.04,107.801 1152.04,105.04 C1152.04,102.279 1149.802,100.04 1147.04,100.04 M1127.032,100.04 C1124.271,100.04 1122.032,102.279 1122.032,105.04 C1122.032,107.801 1124.271,110.04 1127.032,110.04 C1129.793,110.04 1132.032,107.801 1132.032,105.04 C1132.032,102.279 1129.793,100.04 1127.032,100.04 M1107.024,100.04 C1104.263,100.04 1102.024,102.279 1102.024,105.04 C1102.024,107.801 1104.263,110.04 1107.024,110.04 C1109.785,110.04 1112.024,107.801 1112.024,105.04 C1112.024,102.279 1109.785,100.04 1107.024,100.04 M1087.016,100.04 C1084.255,100.04 1082.016,102.279 1082.016,105.04 C1082.016,107.801 1084.255,110.04 1087.016,110.04 C1089.778,110.04 1092.016,107.801 1092.016,105.04 C1092.016,102.279 1089.778,100.04 1087.016,100.04 M1067.008,100.04 C1064.246,100.04 1062.008,102.279 1062.008,105.04 C1062.008,107.801 1064.246,110.04 1067.008,110.04 C1069.769,110.04 1072.008,107.801 1072.008,105.04 C1072.008,102.279 1069.769,100.04 1067.008,100.04 M1047,100.04 C1044.239,100.04 1042,102.279 1042,105.04 C1042,107.801 1044.239,110.04 1047,110.04 C1049.762,110.04 1052,107.801 1052,105.04 C1052,102.279 1049.762,100.04 1047,100.04 M1287.096,80.032 C1284.335,80.032 1282.096,82.271 1282.096,85.032 C1282.096,87.793 1284.335,90.032 1287.096,90.032 C1289.857,90.032 1292.096,87.793 1292.096,85.032 C1292.096,82.271 1289.857,80.032 1287.096,80.032 M1267.088,80.032 C1264.326,80.032 1262.088,82.271 1262.088,85.032 C1262.088,87.793 1264.326,90.032 1267.088,90.032 C1269.849,90.032 1272.088,87.793 1272.088,85.032 C1272.088,82.271 1269.849,80.032 1267.088,80.032 M1247.08,80.032 C1244.319,80.032 1242.08,82.271 1242.08,85.032 C1242.08,87.793 1244.319,90.032 1247.08,90.032 C1249.842,90.032 1252.08,87.793 1252.08,85.032 C1252.08,82.271 1249.842,80.032 1247.08,80.032 M1227.072,80.032 C1224.31,80.032 1222.072,82.271 1222.072,85.032 C1222.072,87.793 1224.31,90.032 1227.072,90.032 C1229.833,90.032 1232.072,87.793 1232.072,85.032 C1232.072,82.271 1229.833,80.032 1227.072,80.032 M1207.064,80.032 C1204.303,80.032 1202.064,82.271 1202.064,85.032 C1202.064,87.793 1204.303,90.032 1207.064,90.032 C1209.825,90.032 1212.064,87.793 1212.064,85.032 C1212.064,82.271 1209.825,80.032 1207.064,80.032 M1187.056,80.032 C1184.295,80.032 1182.056,82.271 1182.056,85.032 C1182.056,87.793 1184.295,90.032 1187.056,90.032 C1189.817,90.032 1192.056,87.793 1192.056,85.032 C1192.056,82.271 1189.817,80.032 1187.056,80.032 M1167.048,80.032 C1164.286,80.032 1162.048,82.271 1162.048,85.032 C1162.048,87.793 1164.286,90.032 1167.048,90.032 C1169.809,90.032 1172.048,87.793 1172.048,85.032 C1172.048,82.271 1169.809,80.032 1167.048,80.032 M1147.04,80.032 C1144.279,80.032 1142.04,82.271 1142.04,85.032 C1142.04,87.793 1144.279,90.032 1147.04,90.032 C1149.802,90.032 1152.04,87.793 1152.04,85.032 C1152.04,82.271 1149.802,80.032 1147.04,80.032 M1127.032,80.032 C1124.271,80.032 1122.032,82.271 1122.032,85.032 C1122.032,87.793 1124.271,90.032 1127.032,90.032 C1129.793,90.032 1132.032,87.793 1132.032,85.032 C1132.032,82.271 1129.793,80.032 1127.032,80.032 M1107.024,80.032 C1104.263,80.032 1102.024,82.271 1102.024,85.032 C1102.024,87.793 1104.263,90.032 1107.024,90.032 C1109.785,90.032 1112.024,87.793 1112.024,85.032 C1112.024,82.271 1109.785,80.032 1107.024,80.032 M1087.016,80.032 C1084.255,80.032 1082.016,82.271 1082.016,85.032 C1082.016,87.793 1084.255,90.032 1087.016,90.032 C1089.778,90.032 1092.016,87.793 1092.016,85.032 C1092.016,82.271 1089.778,80.032 1087.016,80.032 M1067.008,80.032 C1064.246,80.032 1062.008,82.271 1062.008,85.032 C1062.008,87.793 1064.246,90.032 1067.008,90.032 C1069.769,90.032 1072.008,87.793 1072.008,85.032 C1072.008,82.271 1069.769,80.032 1067.008,80.032 M1047,80.032 C1044.239,80.032 1042,82.271 1042,85.032 C1042,87.793 1044.239,90.032 1047,90.032 C1049.762,90.032 1052,87.793 1052,85.032 C1052,82.271 1049.762,80.032 1047,80.032 M1287.096,60.024 C1284.335,60.024 1282.096,62.263 1282.096,65.024 C1282.096,67.785 1284.335,70.024 1287.096,70.024 C1289.857,70.024 1292.096,67.785 1292.096,65.024 C1292.096,62.263 1289.857,60.024 1287.096,60.024 M1267.088,60.024 C1264.326,60.024 1262.088,62.263 1262.088,65.024 C1262.088,67.785 1264.326,70.024 1267.088,70.024 C1269.849,70.024 1272.088,67.785 1272.088,65.024 C1272.088,62.263 1269.849,60.024 1267.088,60.024 M1247.08,60.024 C1244.319,60.024 1242.08,62.263 1242.08,65.024 C1242.08,67.785 1244.319,70.024 1247.08,70.024 C1249.842,70.024 1252.08,67.785 1252.08,65.024 C1252.08,62.263 1249.842,60.024 1247.08,60.024 M1227.072,60.024 C1224.31,60.024 1222.072,62.263 1222.072,65.024 C1222.072,67.785 1224.31,70.024 1227.072,70.024 C1229.833,70.024 1232.072,67.785 1232.072,65.024 C1232.072,62.263 1229.833,60.024 1227.072,60.024 M1207.064,60.024 C1204.303,60.024 1202.064,62.263 1202.064,65.024 C1202.064,67.785 1204.303,70.024 1207.064,70.024 C1209.825,70.024 1212.064,67.785 1212.064,65.024 C1212.064,62.263 1209.825,60.024 1207.064,60.024 M1187.056,60.024 C1184.295,60.024 1182.056,62.263 1182.056,65.024 C1182.056,67.785 1184.295,70.024 1187.056,70.024 C1189.817,70.024 1192.056,67.785 1192.056,65.024 C1192.056,62.263 1189.817,60.024 1187.056,60.024 M1167.048,60.024 C1164.286,60.024 1162.048,62.263 1162.048,65.024 C1162.048,67.785 1164.286,70.024 1167.048,70.024 C1169.809,70.024 1172.048,67.785 1172.048,65.024 C1172.048,62.263 1169.809,60.024 1167.048,60.024 M1147.04,60.024 C1144.279,60.024 1142.04,62.263 1142.04,65.024 C1142.04,67.785 1144.279,70.024 1147.04,70.024 C1149.802,70.024 1152.04,67.785 1152.04,65.024 C1152.04,62.263 1149.802,60.024 1147.04,60.024 M1127.032,60.024 C1124.271,60.024 1122.032,62.263 1122.032,65.024 C1122.032,67.785 1124.271,70.024 1127.032,70.024 C1129.793,70.024 1132.032,67.785 1132.032,65.024 C1132.032,62.263 1129.793,60.024 1127.032,60.024 M1107.024,60.024 C1104.263,60.024 1102.024,62.263 1102.024,65.024 C1102.024,67.785 1104.263,70.024 1107.024,70.024 C1109.785,70.024 1112.024,67.785 1112.024,65.024 C1112.024,62.263 1109.785,60.024 1107.024,60.024 M1087.016,60.024 C1084.255,60.024 1082.016,62.263 1082.016,65.024 C1082.016,67.785 1084.255,70.024 1087.016,70.024 C1089.778,70.024 1092.016,67.785 1092.016,65.024 C1092.016,62.263 1089.778,60.024 1087.016,60.024 M1067.008,60.024 C1064.246,60.024 1062.008,62.263 1062.008,65.024 C1062.008,67.785 1064.246,70.024 1067.008,70.024 C1069.769,70.024 1072.008,67.785 1072.008,65.024 C1072.008,62.263 1069.769,60.024 1067.008,60.024 M1047,60.024 C1044.239,60.024 1042,62.263 1042,65.024 C1042,67.785 1044.239,70.024 1047,70.024 C1049.762,70.024 1052,67.785 1052,65.024 C1052,62.263 1049.762,60.024 1047,60.024 M1287.096,40.016 C1284.335,40.016 1282.096,42.254 1282.096,45.016 C1282.096,47.778 1284.335,50.016 1287.096,50.016 C1289.857,50.016 1292.096,47.778 1292.096,45.016 C1292.096,42.254 1289.857,40.016 1287.096,40.016 M1267.088,40.016 C1264.326,40.016 1262.088,42.254 1262.088,45.016 C1262.088,47.778 1264.326,50.016 1267.088,50.016 C1269.849,50.016 1272.088,47.778 1272.088,45.016 C1272.088,42.254 1269.849,40.016 1267.088,40.016 M1247.08,40.016 C1244.319,40.016 1242.08,42.254 1242.08,45.016 C1242.08,47.778 1244.319,50.016 1247.08,50.016 C1249.842,50.016 1252.08,47.778 1252.08,45.016 C1252.08,42.254 1249.842,40.016 1247.08,40.016 M1227.072,40.016 C1224.31,40.016 1222.072,42.254 1222.072,45.016 C1222.072,47.778 1224.31,50.016 1227.072,50.016 C1229.833,50.016 1232.072,47.778 1232.072,45.016 C1232.072,42.254 1229.833,40.016 1227.072,40.016 M1207.064,40.016 C1204.303,40.016 1202.064,42.254 1202.064,45.016 C1202.064,47.778 1204.303,50.016 1207.064,50.016 C1209.825,50.016 1212.064,47.778 1212.064,45.016 C1212.064,42.254 1209.825,40.016 1207.064,40.016 M1187.056,40.016 C1184.295,40.016 1182.056,42.254 1182.056,45.016 C1182.056,47.778 1184.295,50.016 1187.056,50.016 C1189.817,50.016 1192.056,47.778 1192.056,45.016 C1192.056,42.254 1189.817,40.016 1187.056,40.016 M1167.048,40.016 C1164.286,40.016 1162.048,42.254 1162.048,45.016 C1162.048,47.778 1164.286,50.016 1167.048,50.016 C1169.809,50.016 1172.048,47.778 1172.048,45.016 C1172.048,42.254 1169.809,40.016 1167.048,40.016 M1147.04,40.016 C1144.279,40.016 1142.04,42.254 1142.04,45.016 C1142.04,47.778 1144.279,50.016 1147.04,50.016 C1149.802,50.016 1152.04,47.778 1152.04,45.016 C1152.04,42.254 1149.802,40.016 1147.04,40.016 M1127.032,40.016 C1124.271,40.016 1122.032,42.254 1122.032,45.016 C1122.032,47.778 1124.271,50.016 1127.032,50.016 C1129.793,50.016 1132.032,47.778 1132.032,45.016 C1132.032,42.254 1129.793,40.016 1127.032,40.016 M1107.024,40.016 C1104.263,40.016 1102.024,42.254 1102.024,45.016 C1102.024,47.778 1104.263,50.016 1107.024,50.016 C1109.785,50.016 1112.024,47.778 1112.024,45.016 C1112.024,42.254 1109.785,40.016 1107.024,40.016 M1087.016,40.016 C1084.255,40.016 1082.016,42.254 1082.016,45.016 C1082.016,47.778 1084.255,50.016 1087.016,50.016 C1089.778,50.016 1092.016,47.778 1092.016,45.016 C1092.016,42.254 1089.778,40.016 1087.016,40.016 M1067.008,40.016 C1064.246,40.016 1062.008,42.254 1062.008,45.016 C1062.008,47.778 1064.246,50.016 1067.008,50.016 C1069.769,50.016 1072.008,47.778 1072.008,45.016 C1072.008,42.254 1069.769,40.016 1067.008,40.016 M1047,40.016 C1044.239,40.016 1042,42.254 1042,45.016 C1042,47.778 1044.239,50.016 1047,50.016 C1049.762,50.016 1052,47.778 1052,45.016 C1052,42.254 1049.762,40.016 1047,40.016 M1287.096,20.008 C1284.335,20.008 1282.096,22.246 1282.096,25.008 C1282.096,27.77 1284.335,30.008 1287.096,30.008 C1289.857,30.008 1292.096,27.77 1292.096,25.008 C1292.096,22.246 1289.857,20.008 1287.096,20.008 M1267.088,20.008 C1264.326,20.008 1262.088,22.246 1262.088,25.008 C1262.088,27.77 1264.326,30.008 1267.088,30.008 C1269.849,30.008 1272.088,27.77 1272.088,25.008 C1272.088,22.246 1269.849,20.008 1267.088,20.008 M1247.08,20.008 C1244.319,20.008 1242.08,22.246 1242.08,25.008 C1242.08,27.77 1244.319,30.008 1247.08,30.008 C1249.842,30.008 1252.08,27.77 1252.08,25.008 C1252.08,22.246 1249.842,20.008 1247.08,20.008 M1227.072,20.008 C1224.31,20.008 1222.072,22.246 1222.072,25.008 C1222.072,27.77 1224.31,30.008 1227.072,30.008 C1229.833,30.008 1232.072,27.77 1232.072,25.008 C1232.072,22.246 1229.833,20.008 1227.072,20.008 M1207.064,20.008 C1204.303,20.008 1202.064,22.246 1202.064,25.008 C1202.064,27.77 1204.303,30.008 1207.064,30.008 C1209.825,30.008 1212.064,27.77 1212.064,25.008 C1212.064,22.246 1209.825,20.008 1207.064,20.008 M1187.056,20.008 C1184.295,20.008 1182.056,22.246 1182.056,25.008 C1182.056,27.77 1184.295,30.008 1187.056,30.008 C1189.817,30.008 1192.056,27.77 1192.056,25.008 C1192.056,22.246 1189.817,20.008 1187.056,20.008 M1167.048,20.008 C1164.286,20.008 1162.048,22.246 1162.048,25.008 C1162.048,27.77 1164.286,30.008 1167.048,30.008 C1169.809,30.008 1172.048,27.77 1172.048,25.008 C1172.048,22.246 1169.809,20.008 1167.048,20.008 M1147.04,20.008 C1144.279,20.008 1142.04,22.246 1142.04,25.008 C1142.04,27.77 1144.279,30.008 1147.04,30.008 C1149.802,30.008 1152.04,27.77 1152.04,25.008 C1152.04,22.246 1149.802,20.008 1147.04,20.008 M1127.032,20.008 C1124.271,20.008 1122.032,22.246 1122.032,25.008 C1122.032,27.77 1124.271,30.008 1127.032,30.008 C1129.793,30.008 1132.032,27.77 1132.032,25.008 C1132.032,22.246 1129.793,20.008 1127.032,20.008 M1107.024,20.008 C1104.263,20.008 1102.024,22.246 1102.024,25.008 C1102.024,27.77 1104.263,30.008 1107.024,30.008 C1109.785,30.008 1112.024,27.77 1112.024,25.008 C1112.024,22.246 1109.785,20.008 1107.024,20.008 M1087.016,20.008 C1084.255,20.008 1082.016,22.246 1082.016,25.008 C1082.016,27.77 1084.255,30.008 1087.016,30.008 C1089.778,30.008 1092.016,27.77 1092.016,25.008 C1092.016,22.246 1089.778,20.008 1087.016,20.008 M1067.008,20.008 C1064.246,20.008 1062.008,22.246 1062.008,25.008 C1062.008,27.77 1064.246,30.008 1067.008,30.008 C1069.769,30.008 1072.008,27.77 1072.008,25.008 C1072.008,22.246 1069.769,20.008 1067.008,20.008 M1047,20.008 C1044.239,20.008 1042,22.246 1042,25.008 C1042,27.77 1044.239,30.008 1047,30.008 C1049.762,30.008 1052,27.77 1052,25.008 C1052,22.246 1049.762,20.008 1047,20.008 M1287.096,0 C1284.335,0 1282.096,2.239 1282.096,5 C1282.096,7.761 1284.335,10 1287.096,10 C1289.857,10 1292.096,7.761 1292.096,5 C1292.096,2.239 1289.857,0 1287.096,0 M1267.088,0 C1264.326,0 1262.088,2.239 1262.088,5 C1262.088,7.761 1264.326,10 1267.088,10 C1269.849,10 1272.088,7.761 1272.088,5 C1272.088,2.239 1269.849,0 1267.088,0 M1247.08,0 C1244.319,0 1242.08,2.239 1242.08,5 C1242.08,7.761 1244.319,10 1247.08,10 C1249.842,10 1252.08,7.761 1252.08,5 C1252.08,2.239 1249.842,0 1247.08,0 M1227.072,0 C1224.31,0 1222.072,2.239 1222.072,5 C1222.072,7.761 1224.31,10 1227.072,10 C1229.833,10 1232.072,7.761 1232.072,5 C1232.072,2.239 1229.833,0 1227.072,0 M1207.064,0 C1204.303,0 1202.064,2.239 1202.064,5 C1202.064,7.761 1204.303,10 1207.064,10 C1209.825,10 1212.064,7.761 1212.064,5 C1212.064,2.239 1209.825,0 1207.064,0 M1187.056,0 C1184.295,0 1182.056,2.239 1182.056,5 C1182.056,7.761 1184.295,10 1187.056,10 C1189.817,10 1192.056,7.761 1192.056,5 C1192.056,2.239 1189.817,0 1187.056,0 M1167.048,0 C1164.286,0 1162.048,2.239 1162.048,5 C1162.048,7.761 1164.286,10 1167.048,10 C1169.809,10 1172.048,7.761 1172.048,5 C1172.048,2.239 1169.809,0 1167.048,0 M1147.04,0 C1144.279,0 1142.04,2.239 1142.04,5 C1142.04,7.761 1144.279,10 1147.04,10 C1149.802,10 1152.04,7.761 1152.04,5 C1152.04,2.239 1149.802,0 1147.04,0 M1127.032,0 C1124.271,0 1122.032,2.239 1122.032,5 C1122.032,7.761 1124.271,10 1127.032,10 C1129.793,10 1132.032,7.761 1132.032,5 C1132.032,2.239 1129.793,0 1127.032,0 M1107.024,0 C1104.263,0 1102.024,2.239 1102.024,5 C1102.024,7.761 1104.263,10 1107.024,10 C1109.785,10 1112.024,7.761 1112.024,5 C1112.024,2.239 1109.785,0 1107.024,0 M1087.016,0 C1084.255,0 1082.016,2.239 1082.016,5 C1082.016,7.761 1084.255,10 1087.016,10 C1089.778,10 1092.016,7.761 1092.016,5 C1092.016,2.239 1089.778,0 1087.016,0 M1067.008,0 C1064.246,0 1062.008,2.239 1062.008,5 C1062.008,7.761 1064.246,10 1067.008,10 C1069.769,10 1072.008,7.761 1072.008,5 C1072.008,2.239 1069.769,0 1067.008,0 M1052,5 C1052,7.761 1049.762,10 1047,10 C1044.239,10 1042,7.761 1042,5 C1042,2.239 1044.239,0 1047,0 C1049.762,0 1052,2.239 1052,5" id="Fill-1"></path>
            </g>
        </g>
    </g>
</svg>