<?xml version="1.0" standalone="no"?>
<!DOCTYPE svg PUBLIC "-//W3C//DTD SVG 20010904//EN"
 "http://www.w3.org/TR/2001/REC-SVG-20010904/DTD/svg10.dtd">
<svg version="1.0" xmlns="http://www.w3.org/2000/svg"
 width="274.000000pt" height="274.000000pt" viewBox="0 0 274.000000 274.000000"
 preserveAspectRatio="xMidYMid meet">
<metadata>
Created by potrace 1.11, written by Peter Selinger 2001-2013
</metadata>
<g transform="translate(0.000000,274.000000) scale(0.100000,-0.100000)"
fill="#000000" stroke="none">
<path d="M762 2213 c2 -5 33 -69 69 -143 35 -74 87 -182 115 -240 l51 -105
-391 -5 c-215 -3 -387 -6 -382 -8 5 -1 4 -8 -1 -14 -6 -7 -12 -22 -15 -33 -35
-133 -162 -583 -173 -615 -18 -51 -18 -53 -3 -44 11 7 768 13 768 7 0 -2 -13
-15 -29 -30 -173 -166 -471 -459 -471 -463 0 -3 170 -5 378 -5 345 1 380 3
412 20 42 22 850 824 850 843 0 22 -78 191 -278 605 -93 192 -104 209 -136
222 -29 12 -102 15 -401 15 -202 0 -365 -3 -363 -7z"/>
<path d="M1931 2113 l-111 -108 36 -75 c19 -41 47 -100 61 -130 15 -30 55
-115 90 -189 l64 -135 66 65 c36 35 89 87 118 114 254 244 457 449 464 468 12
31 -5 72 -35 86 -17 7 -124 11 -333 11 l-308 0 -112 -107z"/>
<path d="M1865 1084 c-82 -85 -201 -205 -264 -268 l-114 -114 45 -94 46 -93
334 0 c300 0 337 2 361 18 34 22 50 53 43 82 -3 12 -35 83 -70 156 -152 320
-225 469 -228 468 -2 -1 -70 -71 -153 -155z"/>
</g>
</svg>
