<?xml version="1.0" encoding="UTF-8"?>
<svg width="32px" height="33px" viewBox="0 0 32 33" version="1.1" xmlns="http://www.w3.org/2000/svg" xmlns:xlink="http://www.w3.org/1999/xlink">
    <!-- Generator: Sketch 55.2 (78181) - https://sketchapp.com -->
    <title>icon_arrow</title>
    <desc>Created with Sketch.</desc>
    <g id="Page-1" stroke="none" stroke-width="1" fill="none" fill-rule="evenodd">
        <g id="Homepage" transform="translate(-478.000000, -1456.000000)">
            <g id="Featured-Listings" transform="translate(148.000000, 631.000000)">
                <g id="Listing" transform="translate(0.000000, 547.000000)">
                    <g id="icon_arrow" transform="translate(330.000000, 278.000000)">
                        <g id="Group-3" transform="translate(0.000000, 0.417676)" fill="#3C80F3">
                            <path d="M15.8279619,0.344 C7.37386667,0.344 0.488533333,6.97714286 0.0428190476,15.32 L22.0344381,15.32 L15.2542476,8.12761905 L17.5963429,8.12761905 L25.2062476,16.1718095 L17.5963429,24.2167619 L15.2542476,24.2167619 L22.0344381,17.024381 L0.0428190476,17.024381 C0.488533333,25.3672381 7.37386667,32.000381 15.8279619,32.000381 C24.5692952,32.000381 31.6550095,24.9139048 31.6550095,16.1718095 C31.6550095,7.43047619 24.5692952,0.344 15.8279619,0.344" id="Fill-1"></path>
                        </g>
                        <path d="M15.2542476,24.6344381 L17.5963429,24.6344381 L25.2062476,16.5894857 L17.5963429,8.54529524 L15.2542476,8.54529524 L22.0344381,15.7376762 L0.0428190476,15.7376762 C0.0283428571,16.0211048 0.000152380952,16.3014857 0.000152380952,16.5894857 C0.000152380952,16.8774857 0.0283428571,17.1578667 0.0428190476,17.4420571 L22.0344381,17.4420571 L15.2542476,24.6344381 Z" id="Fill-4" fill="#FFFFFF"></path>
                    </g>
                </g>
            </g>
        </g>
    </g>
</svg>