<?xml version="1.0" encoding="UTF-8"?>
<svg width="26px" height="26px" viewBox="0 0 26 26" version="1.1" xmlns="http://www.w3.org/2000/svg" xmlns:xlink="http://www.w3.org/1999/xlink">
    <!-- Generator: Sketch 55.2 (78181) - https://sketchapp.com -->
    <title>icon_escape-room</title>
    <desc>Created with Sketch.</desc>
    <g id="Page-1" stroke="none" stroke-width="1" fill="none" fill-rule="evenodd">
        <g id="Homepage" transform="translate(-159.000000, -837.000000)">
            <g id="Featured-Listings" transform="translate(148.000000, 631.000000)">
                <g id="Listing" transform="translate(0.000000, 195.000000)">
                    <g id="Tags" transform="translate(11.000000, 11.000000)">
                        <g id="Experience-Type">
                            <g id="icon_escape-room">
                                <path d="M25.9998,12.9998 C25.9998,20.1798 20.1798,25.9998 12.9998,25.9998 C5.8198,25.9998 -0.0002,20.1798 -0.0002,12.9998 C-0.0002,5.8198 5.8198,-0.0002 12.9998,-0.0002 C20.1798,-0.0002 25.9998,5.8198 25.9998,12.9998" id="Fill-1" fill="#F48222"></path>
                                <path d="M10.8485,9.0916 C10.8485,7.9056 11.8135,6.9406 12.9995,6.9406 C14.1865,6.9406 15.1515,7.9056 15.1515,9.0916 C15.1515,10.2786 14.1865,11.2426 12.9995,11.2426 C11.8135,11.2426 10.8485,10.2786 10.8485,9.0916 L10.8485,9.0916 Z M14.4555,12.9306 C16.0085,12.3416 17.1175,10.8506 17.1175,9.0916 C17.1175,6.8186 15.2735,4.9746 12.9995,4.9746 C10.7265,4.9746 8.8835,6.8186 8.8835,9.0916 C8.8835,10.8506 9.9915,12.3416 11.5435,12.9306 L11.5435,21.0256 L14.4555,21.0256 L16.4255,21.0256 L16.4255,19.0566 L14.4555,19.0566 L14.4555,17.0876 L16.4255,17.0876 L16.4255,15.1186 L14.4555,15.1186 L14.4555,12.9306 Z" id="Fill-4" fill="#FFFFFF"></path>
                            </g>
                        </g>
                    </g>
                </g>
            </g>
        </g>
    </g>
</svg>