<?xml version="1.0" encoding="UTF-8"?>
<svg width="86px" height="86px" viewBox="0 0 86 86" version="1.1" xmlns="http://www.w3.org/2000/svg" xmlns:xlink="http://www.w3.org/1999/xlink">
    <!-- Generator: Sketch 55.2 (78181) - https://sketchapp.com -->
    <title>icon_ex-type</title>
    <desc>Created with Sketch.</desc>
    <defs>
        <filter x="-21.6%" y="-40.0%" width="143.2%" height="180.0%" filterUnits="objectBoundingBox" id="filter-1">
            <feOffset dx="0" dy="16" in="SourceAlpha" result="shadowOffsetOuter1"></feOffset>
            <feGaussianBlur stdDeviation="16" in="shadowOffsetOuter1" result="shadowBlurOuter1"></feGaussianBlur>
            <feColorMatrix values="0 0 0 0 0.0235294118   0 0 0 0 0.0901960784   0 0 0 0 0.250980392  0 0 0 0.12 0" type="matrix" in="shadowBlurOuter1" result="shadowMatrixOuter1"></feColorMatrix>
            <feMerge>
                <feMergeNode in="shadowMatrixOuter1"></feMergeNode>
                <feMergeNode in="SourceGraphic"></feMergeNode>
            </feMerge>
        </filter>
    </defs>
    <g id="Page-1" stroke="none" stroke-width="1" fill="none" fill-rule="evenodd">
        <g id="Homepage" transform="translate(-162.000000, -387.000000)">
            <g id="Hero">
                <g id="Text" transform="translate(147.000000, 30.000000)">
                    <g id="Filters" filter="url(#filter-1)" transform="translate(2.000000, 269.000000)">
                        <g id="Location" transform="translate(30.000000, 90.000000)">
                            <g id="icon_ex-type" transform="translate(26.000000, 25.000000) rotate(-315.000000) translate(-26.000000, -25.000000) translate(13.000000, 12.000000)">
                                <path d="M26,13 C26,20.18 20.18,26 13,26 C5.82,26 0,20.18 0,13 C0,5.82 5.82,0 13,0 C20.18,0 26,5.82 26,13" id="Fill-1" fill="#F48222"></path>
                                <path d="M14.8808,5.5151 C14.8808,6.5541 14.0388,7.3961 12.9998,7.3961 C11.9618,7.3961 11.1188,6.5541 11.1188,5.5151 L8.3328,5.5151 L8.3328,20.4851 L11.1188,20.4851 C11.1188,19.4461 11.9618,18.6041 12.9998,18.6041 C14.0388,18.6041 14.8808,19.4461 14.8808,20.4851 L17.6668,20.4851 L17.6668,5.5151 L14.8808,5.5151 Z" id="Fill-3" fill="#FFFFFF"></path>
                                <polyline id="Fill-5" fill="#F48222" points="13.9277 16.1455 13.9277 9.8545 11.9587 9.8545 11.9587 16.1455"></polyline>
                            </g>
                        </g>
                    </g>
                </g>
            </g>
        </g>
    </g>
</svg>