<?xml version="1.0" encoding="UTF-8"?>
<svg width="24px" height="24px" viewBox="0 0 24 24" version="1.1" xmlns="http://www.w3.org/2000/svg" xmlns:xlink="http://www.w3.org/1999/xlink">
    <!-- Generator: Sketch 55.2 (78181) - https://sketchapp.com -->
    <title>icon_facebook</title>
    <desc>Created with Sketch.</desc>
    <g id="Page-1" stroke="none" stroke-width="1" fill="none" fill-rule="evenodd">
        <g id="Homepage" transform="translate(-149.000000, -2749.000000)" fill="#3C80F3" fill-rule="nonzero">
            <g id="Footer" transform="translate(0.000000, 2473.000000)">
                <g id="Social" transform="translate(149.000000, 276.000000)">
                    <g id="icon_facebook">
                        <path d="M12,0 C5.373,0 0,5.373 0,12 C0,18.627 5.373,24 12,24 C18.627,24 24,18.627 24,12 C24,5.373 18.627,0 12,0 Z M15,8 L13.65,8 C13.112,8 13,8.221 13,8.778 L13,10 L15,10 L14.791,12 L13,12 L13,19 L10,19 L10,12 L8,12 L8,10 L10,10 L10,7.692 C10,5.923 10.931,5 13.029,5 L15,5 L15,8 Z" id="Shape"></path>
                    </g>
                </g>
            </g>
        </g>
    </g>
</svg>