<?xml version="1.0" encoding="UTF-8"?>
<svg width="15px" height="14px" viewBox="0 0 15 14" version="1.1" xmlns="http://www.w3.org/2000/svg" xmlns:xlink="http://www.w3.org/1999/xlink">
    <!-- Generator: Sketch 55.2 (78181) - https://sketchapp.com -->
    <title>info-icon_website</title>
    <desc>Created with Sketch.</desc>
    <g id="Page-1" stroke="none" stroke-width="1" fill="none" fill-rule="evenodd">
        <g id="Detail-Page" transform="translate(-1124.000000, -776.000000)" fill="#3C80F3" fill-rule="nonzero">
            <g id="Contact" transform="translate(1124.000000, 561.000000)">
                <g transform="translate(0.467845, 75.000000)" id="info-icon_website">
                    <g transform="translate(0.000000, 140.000000)">
                        <path d="M7,0 C3.13425,0 0,3.13425 0,7 C0,10.86575 3.13425,14 7,14 C10.86575,14 14,10.86575 14,7 C14,3.13425 10.86575,0 7,0 Z M7.58333333,9.36658333 L7.58333333,7.58333333 L9.32983333,7.58333333 C9.29541667,8.25008333 9.20616667,8.89 9.06383333,9.49608333 C8.58375,9.42608333 8.08733333,9.38641667 7.58333333,9.36658333 L7.58333333,9.36658333 Z M8.72491667,10.62775 C8.43383333,11.4035833 8.04883333,12.0843333 7.58333333,12.64375 L7.58333333,10.5320833 C7.97183333,10.5484167 8.35275,10.5793333 8.72491667,10.62775 Z M7.58333333,6.41666667 L7.58333333,4.65791667 C8.08966667,4.63808333 8.58725,4.59783333 9.06966667,4.52725 C9.2085,5.12633333 9.29658333,5.75866667 9.32983333,6.41666667 L7.58333333,6.41666667 Z M7.58333333,3.49183333 L7.58333333,1.35625 C8.0535,1.9215 8.44141667,2.61041667 8.73308333,3.39558333 C8.35858333,3.44458333 7.97475,3.4755 7.58333333,3.49183333 Z M9.16008333,1.58608333 C9.88166667,1.87541667 10.53325,2.30241667 11.07925,2.83791667 C10.70475,2.97441667 10.3145,3.09575 9.9015,3.192 C9.70083333,2.61333333 9.44941667,2.07783333 9.16008333,1.58608333 L9.16008333,1.58608333 Z M4.93616667,9.49608333 C4.79383333,8.89 4.704,8.25008333 4.67016667,7.58333333 L6.41666667,7.58333333 L6.41666667,9.36658333 C5.91208333,9.38641667 5.41683333,9.42608333 4.93616667,9.49608333 Z M6.41666667,10.5320833 L6.41666667,12.64375 C5.95116667,12.0843333 5.56616667,11.4035833 5.27508333,10.62775 C5.64725,10.5793333 6.02816667,10.5484167 6.41666667,10.5320833 Z M4.67016667,6.41666667 C4.70341667,5.75866667 4.79091667,5.12633333 4.93033333,4.52725 C5.41275,4.59783333 5.91033333,4.63808333 6.41666667,4.65791667 L6.41666667,6.41666667 L4.67016667,6.41666667 Z M5.2675,3.39558333 C5.55916667,2.61041667 5.94708333,1.9215 6.41666667,1.35625 L6.41666667,3.49183333 C6.02525,3.4755 5.64141667,3.44458333 5.2675,3.39558333 Z M4.09791667,3.19141667 C3.68491667,3.09516667 3.29466667,2.97383333 2.92075,2.83733333 C3.46733333,2.30183333 4.11833333,1.87483333 4.83991667,1.5855 C4.55058333,2.07783333 4.29916667,2.61333333 4.09791667,3.19141667 L4.09791667,3.19141667 Z M3.77766667,4.31025 C3.62366667,4.98166667 3.5245,5.68691667 3.49066667,6.41666667 L1.19641667,6.41666667 C1.29266667,5.4495 1.6275,4.55175 2.13966667,3.78116667 C2.653,3.99175 3.199,4.172 3.77766667,4.31025 Z M3.78291667,9.71308333 C3.20658333,9.85075 2.66291667,10.02925 2.15133333,10.2380833 C1.63216667,9.46341667 1.29325,8.55866667 1.19641667,7.58333333 L3.49125,7.58333333 C3.52508333,8.32125 3.626,9.03466667 3.78291667,9.71308333 Z M4.1055,10.8313333 C4.305,11.4006667 4.5535,11.9285833 4.83875,12.4133333 C4.12533333,12.1275 3.48191667,11.7069167 2.93941667,11.1795833 C3.31041667,11.046 3.69716667,10.9258333 4.1055,10.8313333 L4.1055,10.8313333 Z M9.8945,10.8313333 C10.3028333,10.9264167 10.689,11.0454167 11.0605833,11.1795833 C10.5175,11.7063333 9.87408333,12.1275 9.16066667,12.4139167 C9.44591667,11.9285833 9.69441667,11.4006667 9.8945,10.8313333 Z M10.2170833,9.71308333 C10.3745833,9.03466667 10.4749167,8.32125 10.5093333,7.58333333 L12.8041667,7.58333333 C12.70675,8.55866667 12.3678333,9.46341667 11.8486667,10.2380833 C11.3370833,10.02925 10.7928333,9.85075 10.2170833,9.71308333 L10.2170833,9.71308333 Z M10.5093333,6.41666667 C10.4755,5.68691667 10.37575,4.98166667 10.2223333,4.31025 C10.801,4.172 11.3475833,3.99175 11.8609167,3.78116667 C12.3725,4.55175 12.7073333,5.4495 12.8035833,6.41666667 L10.5093333,6.41666667 Z" id="Shape"></path>
                    </g>
                </g>
            </g>
        </g>
    </g>
</svg>