<?xml version="1.0" encoding="UTF-8"?>
<svg width="26px" height="26px" viewBox="0 0 26 26" version="1.1" xmlns="http://www.w3.org/2000/svg" xmlns:xlink="http://www.w3.org/1999/xlink">
    <!-- Generator: Sketch 55.2 (78181) - https://sketchapp.com -->
    <title>icon_pedal-pub</title>
    <desc>Created with Sketch.</desc>
    <g id="Page-1" stroke="none" stroke-width="1" fill="none" fill-rule="evenodd">
        <g id="Homepage" transform="translate(-552.000000, -1187.000000)">
            <g id="Featured-Listings" transform="translate(148.000000, 631.000000)">
                <g id="Listing" transform="translate(391.000000, 546.000000)">
                    <g id="Tags" transform="translate(13.000000, 10.000000)">
                        <g id="Experience-Type">
                            <g id="icon_pedal-pub">
                                <path d="M26.0002,12.9998 C26.0002,20.1798 20.1802,25.9998 13.0002,25.9998 C5.8202,25.9998 0.0002,20.1798 0.0002,12.9998 C0.0002,5.8198 5.8202,-0.0002 13.0002,-0.0002 C20.1802,-0.0002 26.0002,5.8198 26.0002,12.9998" id="Fill-1" fill="#F48222"></path>
                                <path d="M15.3986,19.6053 L10.6016,19.6053 L9.7986,8.9803 L16.2006,8.9803 L15.3986,19.6053 Z M15.8076,4.5013 C15.5096,4.5013 15.2276,4.5623 14.9616,4.6583 C14.2296,3.6483 13.0476,2.9843 11.7086,2.9843 C9.4866,2.9843 7.6786,4.7923 7.6786,7.0143 L8.7786,21.5713 L17.2216,21.5713 L18.3206,7.0143 C18.3206,5.6283 17.1936,4.5013 15.8076,4.5013 L15.8076,4.5013 Z" id="Fill-4" fill="#FFFFFF"></path>
                            </g>
                        </g>
                    </g>
                </g>
            </g>
        </g>
    </g>
</svg>