<?xml version="1.0" encoding="UTF-8"?>
<svg width="26px" height="26px" viewBox="0 0 26 26" version="1.1" xmlns="http://www.w3.org/2000/svg" xmlns:xlink="http://www.w3.org/1999/xlink">
    <!-- Generator: Sketch 52.6 (67491) - http://www.bohemiancoding.com/sketch -->
    <title>Group 6</title>
    <desc>Created with Sketch.</desc>
    <g id="Page-1" stroke="none" stroke-width="1" fill="none" fill-rule="evenodd">
        <g id="Results" transform="translate(-40.000000, -342.000000)">
            <g id="Left-Filters" transform="translate(-57.000000, 298.000000)">
                <g id="Experience-Type" transform="translate(87.000000, 31.000000)">
                    <g id="Experience">
                        <g id="Group-6" transform="translate(10.000000, 13.000000)">
                            <path d="M26.0001,13 C26.0001,20.18 20.1801,26 13.0001,26 C5.8201,26 0.0001,20.18 0.0001,13 C0.0001,5.82 5.8201,0 13.0001,0 C20.1801,0 26.0001,5.82 26.0001,13" id="Fill-1" fill="#F48222"></path>
                            <path d="M11.796,15.5107 C9.748,15.5107 8.081,13.8437 8.081,11.7957 C8.081,9.7477 9.748,8.0807 11.796,8.0807 C13.844,8.0807 15.511,9.7477 15.511,11.7957 C15.511,13.8437 13.844,15.5107 11.796,15.5107 Z M20,18.6097 L16.443,15.0527 C17.092,14.1297 17.477,13.0077 17.477,11.7957 C17.477,8.6637 14.928,6.1147 11.796,6.1147 C8.664,6.1147 6.115,8.6637 6.115,11.7957 C6.115,14.9277 8.664,17.4767 11.796,17.4767 C13.008,17.4767 14.13,17.0917 15.053,16.4427 L18.61,19.9997 L20,18.6097 Z" id="Fill-4" fill="#FFFFFF"></path>
                        </g>
                    </g>
                </g>
            </g>
        </g>
    </g>
</svg>